  0
SECTION
  2
HEADER
  9
$ACADVER
  1
AC1014
  9
$HANDSEED
  5
FFFF
  9
$MEASUREMENT
 70
     1
  0
ENDSEC
  0
SECTION
  2
TABLES
  0
TABLE
  2
VPORT
  5
8
330
0
100
AcDbSymbolTable
 70
     4
  0
VPORT
  5
2E
330
8
100
AcDbSymbolTableRecord
100
AcDbViewportTableRecord
  2
*ACTIVE
 70
     0
 10
0.0
 20
0.0
 11
1.0
 21
1.0
 12
210.0
 22
148.5
 13
0.0
 23
0.0
 14
10.0
 24
10.0
 15
10.0
 25
10.0
 16
0.0
 26
0.0
 36
1.0
 17
0.0
 27
0.0
 37
0.0
 40
341.0
 41
1.24
 42
50.0
 43
0.0
 44
0.0
 50
0.0
 51
0.0
 71
     0
 72
   100
 73
     1
 74
     3
 75
     0
 76
     0
 77
     0
 78
     0
  0
ENDTAB
  0
TABLE
  2
LTYPE
  5
5
330
0
100
AcDbSymbolTable
 70
     1
  0
LTYPE
  5
14
330
5
100
AcDbSymbolTableRecord
100
AcDbLinetypeTableRecord
  2
BYBLOCK
 70
     0
  3

 72
    65
 73
     0
 40
0.0
  0
LTYPE
  5
15
330
5
100
AcDbSymbolTableRecord
100
AcDbLinetypeTableRecord
  2
BYLAYER
 70
     0
  3

 72
    65
 73
     0
 40
0.0
  0
LTYPE
  5
16
330
5
100
AcDbSymbolTableRecord
100
AcDbLinetypeTableRecord
  2
CONTINUOUS
 70
     0
  3
Solid line
 72
    65
 73
     0
 40
0.0
  0
ENDTAB
  0
TABLE
  2
LAYER
  5
2
100
AcDbSymbolTable
 70
2
  0
LAYER
  5
50
100
AcDbSymbolTableRecord
100
AcDbLayerTableRecord
  2
0
 70
0
  6
CONTINUOUS
  0
LAYER
  5
51
100
AcDbSymbolTableRecord
100
AcDbLayerTableRecord
  2
Layer_1
 70
0
  6
CONTINUOUS
  0
ENDTAB
  0
TABLE
  2
STYLE
  5
3
330
0
100
AcDbSymbolTable
 70
     1
  0
STYLE
  5
11
330
3
100
AcDbSymbolTableRecord
100
AcDbTextStyleTableRecord
  2
STANDARD
 70
     0
 40
0.0
 41
1.0
 50
0.0
 71
     0
 42
2.5
  3
txt
  4

  0
ENDTAB
  0
TABLE
  2
VIEW
  5
6
330
0
100
AcDbSymbolTable
 70
     0
  0
ENDTAB
  0
TABLE
  2
UCS
  5
7
330
0
100
AcDbSymbolTable
 70
     0
  0
ENDTAB
  0
TABLE
  2
APPID
  5
9
330
0
100
AcDbSymbolTable
 70
     2
  0
APPID
  5
12
330
9
100
AcDbSymbolTableRecord
100
AcDbRegAppTableRecord
  2
ACAD
 70
     0
  0
ENDTAB
  0
TABLE
  2
DIMSTYLE
  5
A
330
0
100
AcDbSymbolTable
 70
     1
  0
DIMSTYLE
105
27
330
A
100
AcDbSymbolTableRecord
100
AcDbDimStyleTableRecord
  2
ISO-25
 70
     0
  3

  4

  5

  6

  7

 40
1.0
 41
2.5
 42
0.625
 43
3.75
 44
1.25
 45
0.0
 46
0.0
 47
0.0
 48
0.0
140
2.5
141
2.5
142
0.0
143
0.03937007874016
144
1.0
145
0.0
146
1.0
147
0.625
 71
     0
 72
     0
 73
     0
 74
     0
 75
     0
 76
     0
 77
     1
 78
     8
170
     0
171
     3
172
     1
173
     0
174
     0
175
     0
176
     0
177
     0
178
     0
270
     2
271
     2
272
     2
273
     2
274
     3
340
11
275
     0
280
     0
281
     0
282
     0
283
     0
284
     8
285
     0
286
     0
287
     3
288
     0
  0
ENDTAB
  0
TABLE
  2
BLOCK_RECORD
  5
1
330
0
100
AcDbSymbolTable
 70
     1
  0
BLOCK_RECORD
  5
1F
330
1
100
AcDbSymbolTableRecord
100
AcDbBlockTableRecord
  2
*MODEL_SPACE
  0
BLOCK_RECORD
  5
1B
330
1
100
AcDbSymbolTableRecord
100
AcDbBlockTableRecord
  2
*PAPER_SPACE
  0
ENDTAB
  0
ENDSEC
  0
SECTION
  2
BLOCKS
  0
BLOCK
  5
20
330
1F
100
AcDbEntity
  8
0
100
AcDbBlockBegin
  2
*MODEL_SPACE
 70
     0
 10
0.0
 20
0.0
 30
0.0
  3
*MODEL_SPACE
  1

  0
ENDBLK
  5
21
330
1F
100
AcDbEntity
  8
0
100
AcDbBlockEnd
  0
BLOCK
  5
1C
330
1B
100
AcDbEntity
 67
     1
  8
0
100
AcDbBlockBegin
  2
*PAPER_SPACE
  1

  0
ENDBLK
  5
1D
330
1B
100
AcDbEntity
 67
     1
  8
0
100
AcDbBlockEnd
  0
ENDSEC
  0
SECTION
  2
ENTITIES
  0
SPLINE
  5
100
100
AcDbEntity
  8
Layer_1
 62
7
100
AcDbSpline
 70
8
 71
3
 72
8
 73
4
 74
0
 40
0
 40
0
 40
0
 40
0
 40
1
 40
1
 40
1
 40
1
 10
68.571429
 20
614.857140
 30
0.0
 10
76.952381
 20
614.857140
 30
0.0
 10
85.333336
 20
614.857140
 30
0.0
 10
93.714288
 20
614.857140
 30
0.0
  0
SPLINE
  5
101
100
AcDbEntity
  8
Layer_1
 62
7
100
AcDbSpline
 70
8
 71
3
 72
8
 73
4
 74
0
 40
0
 40
0
 40
0
 40
0
 40
1
 40
1
 40
1
 40
1
 10
93.714288
 20
614.857140
 30
0.0
 10
96.000000
 20
614.857140
 30
0.0
 10
98.449200
 20
615.706036
 30
0.0
 10
100.571432
 20
614.857140
 30
0.0
  0
SPLINE
  5
102
100
AcDbEntity
  8
Layer_1
 62
7
100
AcDbSpline
 70
8
 71
3
 72
8
 73
4
 74
0
 40
0
 40
0
 40
0
 40
0
 40
1
 40
1
 40
1
 40
1
 10
100.571432
 20
614.857140
 30
0.0
 10
104.411280
 20
613.321204
 30
0.0
 10
111.245896
 20
599.210780
 30
0.0
 10
112.000000
 20
596.571428
 30
0.0
  0
SPLINE
  5
103
100
AcDbEntity
  8
Layer_1
 62
7
100
AcDbSpline
 70
8
 71
3
 72
8
 73
4
 74
0
 40
0
 40
0
 40
0
 40
0
 40
1
 40
1
 40
1
 40
1
 10
112.000000
 20
596.571428
 30
0.0
 10
112.627936
 20
594.373660
 30
0.0
 10
111.747584
 20
591.986020
 30
0.0
 10
112.000000
 20
589.714284
 30
0.0
  0
SPLINE
  5
104
100
AcDbEntity
  8
Layer_1
 62
7
100
AcDbSpline
 70
8
 71
3
 72
8
 73
4
 74
0
 40
0
 40
0
 40
0
 40
0
 40
1
 40
1
 40
1
 40
1
 10
112.000000
 20
589.714284
 30
0.0
 10
113.155688
 20
579.313076
 30
0.0
 10
117.089800
 20
568.369820
 30
0.0
 10
114.285712
 20
557.714284
 30
0.0
  0
SPLINE
  5
105
100
AcDbEntity
  8
Layer_1
 62
7
100
AcDbSpline
 70
8
 71
3
 72
8
 73
4
 74
0
 40
0
 40
0
 40
0
 40
0
 40
1
 40
1
 40
1
 40
1
 10
114.285712
 20
557.714284
 30
0.0
 10
108.869816
 20
537.133868
 30
0.0
 10
100.795432
 20
530.420052
 30
0.0
 10
89.142856
 20
514.285716
 30
0.0
  0
SPLINE
  5
106
100
AcDbEntity
  8
Layer_1
 62
7
100
AcDbSpline
 70
8
 71
3
 72
8
 73
4
 74
0
 40
0
 40
0
 40
0
 40
0
 40
1
 40
1
 40
1
 40
1
 10
89.142856
 20
514.285716
 30
0.0
 10
72.151595
 20
490.759348
 30
0.0
 10
76.901558
 20
494.648860
 30
0.0
 10
59.428571
 20
475.428572
 30
0.0
  0
SPLINE
  5
107
100
AcDbEntity
  8
Layer_1
 62
7
100
AcDbSpline
 70
8
 71
3
 72
8
 73
4
 74
0
 40
0
 40
0
 40
0
 40
0
 40
1
 40
1
 40
1
 40
1
 10
59.428571
 20
475.428572
 30
0.0
 10
56.529362
 20
472.239444
 30
0.0
 10
53.333334
 20
469.333332
 30
0.0
 10
50.285714
 20
466.285716
 30
0.0
  0
SPLINE
  5
108
100
AcDbEntity
  8
Layer_1
 62
7
100
AcDbSpline
 70
8
 71
3
 72
8
 73
4
 74
0
 40
0
 40
0
 40
0
 40
0
 40
1
 40
1
 40
1
 40
1
 10
50.285714
 20
466.285716
 30
0.0
 10
48.000000
 20
464.000004
 30
0.0
 10
45.447890
 20
461.952724
 30
0.0
 10
43.428571
 20
459.428572
 30
0.0
  0
SPLINE
  5
109
100
AcDbEntity
  8
Layer_1
 62
7
100
AcDbSpline
 70
8
 71
3
 72
8
 73
4
 74
0
 40
0
 40
0
 40
0
 40
0
 40
1
 40
1
 40
1
 40
1
 10
43.428571
 20
459.428572
 30
0.0
 10
42.364297
 20
458.098228
 30
0.0
 10
42.087884
 20
456.274684
 30
0.0
 10
41.142857
 20
454.857140
 30
0.0
  0
SPLINE
  5
10a
100
AcDbEntity
  8
Layer_1
 62
7
100
AcDbSpline
 70
8
 71
3
 72
8
 73
4
 74
0
 40
0
 40
0
 40
0
 40
0
 40
1
 40
1
 40
1
 40
1
 10
41.142857
 20
454.857140
 30
0.0
 10
38.318395
 20
450.620452
 30
0.0
 10
38.857143
 20
454.647524
 30
0.0
 10
38.857143
 20
450.285716
 30
0.0
  0
SPLINE
  5
10b
100
AcDbEntity
  8
Layer_1
 62
7
100
AcDbSpline
 70
8
 71
3
 72
8
 73
4
 74
0
 40
0
 40
0
 40
0
 40
0
 40
1
 40
1
 40
1
 40
1
 10
38.857143
 20
450.285716
 30
0.0
 10
38.857143
 20
446.744692
 30
0.0
 10
38.349673
 20
434.029884
 30
0.0
 10
38.857143
 20
432.000004
 30
0.0
  0
SPLINE
  5
10c
100
AcDbEntity
  8
Layer_1
 62
7
100
AcDbSpline
 70
8
 71
3
 72
8
 73
4
 74
0
 40
0
 40
0
 40
0
 40
0
 40
1
 40
1
 40
1
 40
1
 10
38.857143
 20
432.000004
 30
0.0
 10
42.464452
 20
417.570764
 30
0.0
 10
45.647529
 20
413.825548
 30
0.0
 10
52.571429
 20
402.285716
 30
0.0
  0
SPLINE
  5
10d
100
AcDbEntity
  8
Layer_1
 62
7
100
AcDbSpline
 70
8
 71
3
 72
8
 73
4
 74
0
 40
0
 40
0
 40
0
 40
0
 40
1
 40
1
 40
1
 40
1
 10
52.571429
 20
402.285716
 30
0.0
 10
54.857143
 20
398.476188
 30
0.0
 10
56.503079
 20
394.200564
 30
0.0
 10
59.428571
 20
390.857140
 30
0.0
  0
SPLINE
  5
10e
100
AcDbEntity
  8
Layer_1
 62
7
100
AcDbSpline
 70
8
 71
3
 72
8
 73
4
 74
0
 40
0
 40
0
 40
0
 40
0
 40
1
 40
1
 40
1
 40
1
 10
59.428571
 20
390.857140
 30
0.0
 10
61.937161
 20
387.990188
 30
0.0
 10
65.679022
 20
386.479204
 30
0.0
 10
68.571429
 20
384.000004
 30
0.0
  0
SPLINE
  5
10f
100
AcDbEntity
  8
Layer_1
 62
7
100
AcDbSpline
 70
8
 71
3
 72
8
 73
4
 74
0
 40
0
 40
0
 40
0
 40
0
 40
1
 40
1
 40
1
 40
1
 10
68.571429
 20
384.000004
 30
0.0
 10
77.365765
 20
376.461996
 30
0.0
 10
73.035048
 20
376.766476
 30
0.0
 10
84.571432
 20
372.571428
 30
0.0
  0
SPLINE
  5
110
100
AcDbEntity
  8
Layer_1
 62
7
100
AcDbSpline
 70
8
 71
3
 72
8
 73
4
 74
0
 40
0
 40
0
 40
0
 40
0
 40
1
 40
1
 40
1
 40
1
 10
84.571432
 20
372.571428
 30
0.0
 10
89.784232
 20
370.675868
 30
0.0
 10
95.080424
 20
368.784428
 30
0.0
 10
100.571432
 20
368.000004
 30
0.0
  0
SPLINE
  5
111
100
AcDbEntity
  8
Layer_1
 62
7
100
AcDbSpline
 70
8
 71
3
 72
8
 73
4
 74
0
 40
0
 40
0
 40
0
 40
0
 40
1
 40
1
 40
1
 40
1
 10
100.571432
 20
368.000004
 30
0.0
 10
105.851160
 20
367.245756
 30
0.0
 10
111.238096
 20
368.000004
 30
0.0
 10
116.571432
 20
368.000004
 30
0.0
  0
SPLINE
  5
112
100
AcDbEntity
  8
Layer_1
 62
7
100
AcDbSpline
 70
8
 71
3
 72
8
 73
4
 74
0
 40
0
 40
0
 40
0
 40
0
 40
1
 40
1
 40
1
 40
1
 10
116.571432
 20
368.000004
 30
0.0
 10
121.904760
 20
368.000004
 30
0.0
 10
127.238096
 20
368.000004
 30
0.0
 10
132.571432
 20
368.000004
 30
0.0
  0
SPLINE
  5
113
100
AcDbEntity
  8
Layer_1
 62
7
100
AcDbSpline
 70
8
 71
3
 72
8
 73
4
 74
0
 40
0
 40
0
 40
0
 40
0
 40
1
 40
1
 40
1
 40
1
 10
132.571432
 20
368.000004
 30
0.0
 10
151.216008
 20
368.000004
 30
0.0
 10
146.461608
 20
366.534820
 30
0.0
 10
164.571432
 20
372.571428
 30
0.0
  0
SPLINE
  5
114
100
AcDbEntity
  8
Layer_1
 62
7
100
AcDbSpline
 70
8
 71
3
 72
8
 73
4
 74
0
 40
0
 40
0
 40
0
 40
0
 40
1
 40
1
 40
1
 40
1
 10
164.571432
 20
372.571428
 30
0.0
 10
170.747088
 20
374.629980
 30
0.0
 10
177.440728
 20
375.817628
 30
0.0
 10
182.857144
 20
379.428572
 30
0.0
  0
SPLINE
  5
115
100
AcDbEntity
  8
Layer_1
 62
7
100
AcDbSpline
 70
8
 71
3
 72
8
 73
4
 74
0
 40
0
 40
0
 40
0
 40
0
 40
1
 40
1
 40
1
 40
1
 10
182.857144
 20
379.428572
 30
0.0
 10
186.916360
 20
382.134716
 30
0.0
 10
188.190480
 20
387.809524
 30
0.0
 10
192.000000
 20
390.857140
 30
0.0
  0
SPLINE
  5
116
100
AcDbEntity
  8
Layer_1
 62
7
100
AcDbSpline
 70
8
 71
3
 72
8
 73
4
 74
0
 40
0
 40
0
 40
0
 40
0
 40
1
 40
1
 40
1
 40
1
 10
192.000000
 20
390.857140
 30
0.0
 10
195.991032
 20
394.049964
 30
0.0
 10
201.461664
 20
394.879204
 30
0.0
 10
205.714288
 20
397.714284
 30
0.0
  0
SPLINE
  5
117
100
AcDbEntity
  8
Layer_1
 62
7
100
AcDbSpline
 70
8
 71
3
 72
8
 73
4
 74
0
 40
0
 40
0
 40
0
 40
0
 40
1
 40
1
 40
1
 40
1
 10
205.714288
 20
397.714284
 30
0.0
 10
208.403880
 20
399.507348
 30
0.0
 10
210.285712
 20
402.285716
 30
0.0
 10
212.571432
 20
404.571428
 30
0.0
  0
SPLINE
  5
118
100
AcDbEntity
  8
Layer_1
 62
7
100
AcDbSpline
 70
8
 71
3
 72
8
 73
4
 74
0
 40
0
 40
0
 40
0
 40
0
 40
1
 40
1
 40
1
 40
1
 10
212.571432
 20
404.571428
 30
0.0
 10
214.857144
 20
406.857140
 30
0.0
 10
217.142856
 20
409.142860
 30
0.0
 10
219.428568
 20
411.428572
 30
0.0
  0
SPLINE
  5
119
100
AcDbEntity
  8
Layer_1
 62
7
100
AcDbSpline
 70
8
 71
3
 72
8
 73
4
 74
0
 40
0
 40
0
 40
0
 40
0
 40
1
 40
1
 40
1
 40
1
 10
219.428568
 20
411.428572
 30
0.0
 10
222.476192
 20
414.476188
 30
0.0
 10
225.205896
 20
417.879004
 30
0.0
 10
228.571432
 20
420.571428
 30
0.0
  0
SPLINE
  5
11a
100
AcDbEntity
  8
Layer_1
 62
7
100
AcDbSpline
 70
8
 71
3
 72
8
 73
4
 74
0
 40
0
 40
0
 40
0
 40
0
 40
1
 40
1
 40
1
 40
1
 10
228.571432
 20
420.571428
 30
0.0
 10
237.665984
 20
427.847068
 30
0.0
 10
255.523176
 20
437.478220
 30
0.0
 10
265.142856
 20
441.142860
 30
0.0
  0
SPLINE
  5
11b
100
AcDbEntity
  8
Layer_1
 62
7
100
AcDbSpline
 70
8
 71
3
 72
8
 73
4
 74
0
 40
0
 40
0
 40
0
 40
0
 40
1
 40
1
 40
1
 40
1
 10
265.142856
 20
441.142860
 30
0.0
 10
277.697696
 20
445.925652
 30
0.0
 10
304.689504
 20
451.387356
 30
0.0
 10
317.714288
 20
452.571428
 30
0.0
  0
SPLINE
  5
11c
100
AcDbEntity
  8
Layer_1
 62
7
100
AcDbSpline
 70
8
 71
3
 72
8
 73
4
 74
0
 40
0
 40
0
 40
0
 40
0
 40
1
 40
1
 40
1
 40
1
 10
317.714288
 20
452.571428
 30
0.0
 10
325.302040
 20
453.261228
 30
0.0
 10
332.952384
 20
452.571428
 30
0.0
 10
340.571432
 20
452.571428
 30
0.0
  0
SPLINE
  5
11d
100
AcDbEntity
  8
Layer_1
 62
7
100
AcDbSpline
 70
8
 71
3
 72
8
 73
4
 74
0
 40
0
 40
0
 40
0
 40
0
 40
1
 40
1
 40
1
 40
1
 10
340.571432
 20
452.571428
 30
0.0
 10
354.700352
 20
452.571428
 30
0.0
 10
370.514160
 20
454.224236
 30
0.0
 10
384.000000
 20
448.000004
 30
0.0
  0
SPLINE
  5
11e
100
AcDbEntity
  8
Layer_1
 62
7
100
AcDbSpline
 70
8
 71
3
 72
8
 73
4
 74
0
 40
0
 40
0
 40
0
 40
0
 40
1
 40
1
 40
1
 40
1
 10
384.000000
 20
448.000004
 30
0.0
 10
387.913288
 20
446.193868
 30
0.0
 10
390.304712
 20
442.100740
 30
0.0
 10
393.142856
 20
438.857140
 30
0.0
  0
SPLINE
  5
11f
100
AcDbEntity
  8
Layer_1
 62
7
100
AcDbSpline
 70
8
 71
3
 72
8
 73
4
 74
0
 40
0
 40
0
 40
0
 40
0
 40
1
 40
1
 40
1
 40
1
 10
393.142856
 20
438.857140
 30
0.0
 10
399.196016
 20
431.939252
 30
0.0
 10
401.293328
 20
429.502932
 30
0.0
 10
402.285712
 20
420.571428
 30
0.0
  0
SPLINE
  5
120
100
AcDbEntity
  8
Layer_1
 62
7
100
AcDbSpline
 70
8
 71
3
 72
8
 73
4
 74
0
 40
0
 40
0
 40
0
 40
0
 40
1
 40
1
 40
1
 40
1
 10
402.285712
 20
420.571428
 30
0.0
 10
402.706408
 20
416.785204
 30
0.0
 10
402.285712
 20
412.952380
 30
0.0
 10
402.285712
 20
409.142860
 30
0.0
  0
SPLINE
  5
121
100
AcDbEntity
  8
Layer_1
 62
7
100
AcDbSpline
 70
8
 71
3
 72
8
 73
4
 74
0
 40
0
 40
0
 40
0
 40
0
 40
1
 40
1
 40
1
 40
1
 10
402.285712
 20
409.142860
 30
0.0
 10
402.285712
 20
404.571428
 30
0.0
 10
403.630104
 20
399.797844
 30
0.0
 10
402.285712
 20
395.428572
 30
0.0
  0
SPLINE
  5
122
100
AcDbEntity
  8
Layer_1
 62
7
100
AcDbSpline
 70
8
 71
3
 72
8
 73
4
 74
0
 40
0
 40
0
 40
0
 40
0
 40
1
 40
1
 40
1
 40
1
 10
402.285712
 20
395.428572
 30
0.0
 10
398.206344
 20
382.170620
 30
0.0
 10
386.674152
 20
372.364156
 30
0.0
 10
377.142856
 20
363.428572
 30
0.0
  0
SPLINE
  5
123
100
AcDbEntity
  8
Layer_1
 62
7
100
AcDbSpline
 70
8
 71
3
 72
8
 73
4
 74
0
 40
0
 40
0
 40
0
 40
0
 40
1
 40
1
 40
1
 40
1
 10
377.142856
 20
363.428572
 30
0.0
 10
370.449680
 20
357.153724
 30
0.0
 10
364.009048
 20
350.514468
 30
0.0
 10
356.571432
 20
345.142860
 30
0.0
  0
SPLINE
  5
124
100
AcDbEntity
  8
Layer_1
 62
7
100
AcDbSpline
 70
8
 71
3
 72
8
 73
4
 74
0
 40
0
 40
0
 40
0
 40
0
 40
1
 40
1
 40
1
 40
1
 10
356.571432
 20
345.142860
 30
0.0
 10
333.263640
 20
332.194084
 30
0.0
 10
338.464216
 20
336.303516
 30
0.0
 10
317.714288
 20
320.000004
 30
0.0
  0
SPLINE
  5
125
100
AcDbEntity
  8
Layer_1
 62
7
100
AcDbSpline
 70
8
 71
3
 72
8
 73
4
 74
0
 40
0
 40
0
 40
0
 40
0
 40
1
 40
1
 40
1
 40
1
 10
317.714288
 20
320.000004
 30
0.0
 10
313.035168
 20
316.323548
 30
0.0
 10
307.953408
 20
313.019012
 30
0.0
 10
304.000000
 20
308.571428
 30
0.0
  0
SPLINE
  5
126
100
AcDbEntity
  8
Layer_1
 62
7
100
AcDbSpline
 70
8
 71
3
 72
8
 73
4
 74
0
 40
0
 40
0
 40
0
 40
0
 40
1
 40
1
 40
1
 40
1
 10
304.000000
 20
308.571428
 30
0.0
 10
303.868600
 20
308.423604
 30
0.0
 10
295.194192
 20
290.847468
 30
0.0
 10
294.857144
 20
290.285716
 30
0.0
  0
SPLINE
  5
127
100
AcDbEntity
  8
Layer_1
 62
7
100
AcDbSpline
 70
8
 71
3
 72
8
 73
4
 74
0
 40
0
 40
0
 40
0
 40
0
 40
1
 40
1
 40
1
 40
1
 10
294.857144
 20
290.285716
 30
0.0
 10
294.302776
 20
289.361772
 30
0.0
 10
293.053296
 20
288.963740
 30
0.0
 10
292.571432
 20
288.000004
 30
0.0
  0
SPLINE
  5
128
100
AcDbEntity
  8
Layer_1
 62
7
100
AcDbSpline
 70
8
 71
3
 72
8
 73
4
 74
0
 40
0
 40
0
 40
0
 40
0
 40
1
 40
1
 40
1
 40
1
 10
292.571432
 20
288.000004
 30
0.0
 10
292.230696
 20
287.318532
 30
0.0
 10
292.571432
 20
286.476188
 30
0.0
 10
292.571432
 20
285.714284
 30
0.0
  0
SPLINE
  5
129
100
AcDbEntity
  8
Layer_1
 62
7
100
AcDbSpline
 70
8
 71
3
 72
8
 73
4
 74
0
 40
0
 40
0
 40
0
 40
0
 40
1
 40
1
 40
1
 40
1
 10
292.571432
 20
285.714284
 30
0.0
 10
292.571432
 20
284.952380
 30
0.0
 10
292.032680
 20
283.967316
 30
0.0
 10
292.571432
 20
283.428572
 30
0.0
  0
SPLINE
  5
12a
100
AcDbEntity
  8
Layer_1
 62
7
100
AcDbSpline
 70
8
 71
3
 72
8
 73
4
 74
0
 40
0
 40
0
 40
0
 40
0
 40
1
 40
1
 40
1
 40
1
 10
292.571432
 20
283.428572
 30
0.0
 10
293.110176
 20
282.889820
 30
0.0
 10
294.101120
 20
283.334068
 30
0.0
 10
294.857144
 20
283.428572
 30
0.0
  0
SPLINE
  5
12b
100
AcDbEntity
  8
Layer_1
 62
7
100
AcDbSpline
 70
8
 71
3
 72
8
 73
4
 74
0
 40
0
 40
0
 40
0
 40
0
 40
1
 40
1
 40
1
 40
1
 10
294.857144
 20
283.428572
 30
0.0
 10
300.203024
 20
284.096804
 30
0.0
 10
305.506560
 20
285.084804
 30
0.0
 10
310.857144
 20
285.714284
 30
0.0
  0
SPLINE
  5
12c
100
AcDbEntity
  8
Layer_1
 62
7
100
AcDbSpline
 70
8
 71
3
 72
8
 73
4
 74
0
 40
0
 40
0
 40
0
 40
0
 40
1
 40
1
 40
1
 40
1
 10
310.857144
 20
285.714284
 30
0.0
 10
318.461744
 20
286.608948
 30
0.0
 10
326.100816
 20
287.184268
 30
0.0
 10
333.714288
 20
288.000004
 30
0.0
  0
SPLINE
  5
12d
100
AcDbEntity
  8
Layer_1
 62
7
100
AcDbSpline
 70
8
 71
3
 72
8
 73
4
 74
0
 40
0
 40
0
 40
0
 40
0
 40
1
 40
1
 40
1
 40
1
 10
333.714288
 20
288.000004
 30
0.0
 10
429.205232
 20
298.231172
 30
0.0
 10
332.765016
 20
285.981572
 30
0.0
 10
400.000000
 20
299.428572
 30
0.0
  0
SPLINE
  5
12e
100
AcDbEntity
  8
Layer_1
 62
7
100
AcDbSpline
 70
8
 71
3
 72
8
 73
4
 74
0
 40
0
 40
0
 40
0
 40
0
 40
1
 40
1
 40
1
 40
1
 10
400.000000
 20
299.428572
 30
0.0
 10
406.765360
 20
300.781644
 30
0.0
 10
413.820080
 20
300.292948
 30
0.0
 10
420.571432
 20
301.714284
 30
0.0
  0
SPLINE
  5
12f
100
AcDbEntity
  8
Layer_1
 62
7
100
AcDbSpline
 70
8
 71
3
 72
8
 73
4
 74
0
 40
0
 40
0
 40
0
 40
0
 40
1
 40
1
 40
1
 40
1
 10
420.571432
 20
301.714284
 30
0.0
 10
425.908352
 20
302.837852
 30
0.0
 10
445.216664
 20
307.889452
 30
0.0
 10
452.571432
 20
313.142860
 30
0.0
  0
SPLINE
  5
130
100
AcDbEntity
  8
Layer_1
 62
7
100
AcDbSpline
 70
8
 71
3
 72
8
 73
4
 74
0
 40
0
 40
0
 40
0
 40
0
 40
1
 40
1
 40
1
 40
1
 10
452.571432
 20
313.142860
 30
0.0
 10
455.201816
 20
315.021700
 30
0.0
 10
457.359184
 20
317.516732
 30
0.0
 10
459.428568
 20
320.000004
 30
0.0
  0
SPLINE
  5
131
100
AcDbEntity
  8
Layer_1
 62
7
100
AcDbSpline
 70
8
 71
3
 72
8
 73
4
 74
0
 40
0
 40
0
 40
0
 40
0
 40
1
 40
1
 40
1
 40
1
 10
459.428568
 20
320.000004
 30
0.0
 10
467.335448
 20
329.488252
 30
0.0
 10
468.011904
 20
340.619052
 30
0.0
 10
470.857144
 20
352.000004
 30
0.0
  0
SPLINE
  5
132
100
AcDbEntity
  8
Layer_1
 62
7
100
AcDbSpline
 70
8
 71
3
 72
8
 73
4
 74
0
 40
0
 40
0
 40
0
 40
0
 40
1
 40
1
 40
1
 40
1
 10
470.857144
 20
352.000004
 30
0.0
 10
473.547712
 20
362.762276
 30
0.0
 10
477.675592
 20
373.152748
 30
0.0
 10
480.000000
 20
384.000004
 30
0.0
  0
SPLINE
  5
133
100
AcDbEntity
  8
Layer_1
 62
7
100
AcDbSpline
 70
8
 71
3
 72
8
 73
4
 74
0
 40
0
 40
0
 40
0
 40
0
 40
1
 40
1
 40
1
 40
1
 10
480.000000
 20
384.000004
 30
0.0
 10
481.128832
 20
389.267892
 30
0.0
 10
481.074288
 20
394.750484
 30
0.0
 10
482.285712
 20
400.000004
 30
0.0
  0
SPLINE
  5
134
100
AcDbEntity
  8
Layer_1
 62
7
100
AcDbSpline
 70
8
 71
3
 72
8
 73
4
 74
0
 40
0
 40
0
 40
0
 40
0
 40
1
 40
1
 40
1
 40
1
 10
482.285712
 20
400.000004
 30
0.0
 10
483.369248
 20
404.695308
 30
0.0
 10
485.472496
 20
409.098796
 30
0.0
 10
486.857144
 20
413.714284
 30
0.0
  0
SPLINE
  5
135
100
AcDbEntity
  8
Layer_1
 62
7
100
AcDbSpline
 70
8
 71
3
 72
8
 73
4
 74
0
 40
0
 40
0
 40
0
 40
0
 40
1
 40
1
 40
1
 40
1
 10
486.857144
 20
413.714284
 30
0.0
 10
488.662504
 20
419.732140
 30
0.0
 10
489.904760
 20
425.904764
 30
0.0
 10
491.428568
 20
432.000004
 30
0.0
  0
SPLINE
  5
136
100
AcDbEntity
  8
Layer_1
 62
7
100
AcDbSpline
 70
8
 71
3
 72
8
 73
4
 74
0
 40
0
 40
0
 40
0
 40
0
 40
1
 40
1
 40
1
 40
1
 10
491.428568
 20
432.000004
 30
0.0
 10
492.190480
 20
435.047620
 30
0.0
 10
493.367376
 20
438.020660
 30
0.0
 10
493.714288
 20
441.142860
 30
0.0
  0
SPLINE
  5
137
100
AcDbEntity
  8
Layer_1
 62
7
100
AcDbSpline
 70
8
 71
3
 72
8
 73
4
 74
0
 40
0
 40
0
 40
0
 40
0
 40
1
 40
1
 40
1
 40
1
 10
493.714288
 20
441.142860
 30
0.0
 10
494.134976
 20
444.929084
 30
0.0
 10
493.714288
 20
448.761908
 30
0.0
 10
493.714288
 20
452.571428
 30
0.0
  0
SPLINE
  5
138
100
AcDbEntity
  8
Layer_1
 62
7
100
AcDbSpline
 70
8
 71
3
 72
8
 73
4
 74
0
 40
0
 40
0
 40
0
 40
0
 40
1
 40
1
 40
1
 40
1
 10
493.714288
 20
452.571428
 30
0.0
 10
493.714288
 20
456.380956
 30
0.0
 10
493.714288
 20
460.190476
 30
0.0
 10
493.714288
 20
464.000004
 30
0.0
  0
SPLINE
  5
139
100
AcDbEntity
  8
Layer_1
 62
7
100
AcDbSpline
 70
8
 71
3
 72
8
 73
4
 74
0
 40
0
 40
0
 40
0
 40
0
 40
1
 40
1
 40
1
 40
1
 10
493.714288
 20
464.000004
 30
0.0
 10
493.714288
 20
468.571428
 30
0.0
 10
493.714288
 20
473.142860
 30
0.0
 10
493.714288
 20
477.714284
 30
0.0
  0
SPLINE
  5
13a
100
AcDbEntity
  8
Layer_1
 62
7
100
AcDbSpline
 70
8
 71
3
 72
8
 73
4
 74
0
 40
0
 40
0
 40
0
 40
0
 40
1
 40
1
 40
1
 40
1
 10
493.714288
 20
477.714284
 30
0.0
 10
493.714288
 20
485.333332
 30
0.0
 10
494.472408
 20
492.990196
 30
0.0
 10
493.714288
 20
500.571428
 30
0.0
  0
SPLINE
  5
13b
100
AcDbEntity
  8
Layer_1
 62
7
100
AcDbSpline
 70
8
 71
3
 72
8
 73
4
 74
0
 40
0
 40
0
 40
0
 40
0
 40
1
 40
1
 40
1
 40
1
 10
493.714288
 20
500.571428
 30
0.0
 10
492.941152
 20
508.302804
 30
0.0
 10
490.241688
 20
515.736732
 30
0.0
 10
489.142856
 20
523.428572
 30
0.0
  0
SPLINE
  5
13c
100
AcDbEntity
  8
Layer_1
 62
7
100
AcDbSpline
 70
8
 71
3
 72
8
 73
4
 74
0
 40
0
 40
0
 40
0
 40
0
 40
1
 40
1
 40
1
 40
1
 10
489.142856
 20
523.428572
 30
0.0
 10
487.952720
 20
531.759508
 30
0.0
 10
488.319632
 20
540.283972
 30
0.0
 10
486.857144
 20
548.571428
 30
0.0
  0
SPLINE
  5
13d
100
AcDbEntity
  8
Layer_1
 62
7
100
AcDbSpline
 70
8
 71
3
 72
8
 73
4
 74
0
 40
0
 40
0
 40
0
 40
0
 40
1
 40
1
 40
1
 40
1
 10
486.857144
 20
548.571428
 30
0.0
 10
486.019720
 20
553.316812
 30
0.0
 10
483.809520
 20
557.714284
 30
0.0
 10
482.285712
 20
562.285716
 30
0.0
  0
SPLINE
  5
13e
100
AcDbEntity
  8
Layer_1
 62
7
100
AcDbSpline
 70
8
 71
3
 72
8
 73
4
 74
0
 40
0
 40
0
 40
0
 40
0
 40
1
 40
1
 40
1
 40
1
 10
482.285712
 20
562.285716
 30
0.0
 10
481.523808
 20
564.571428
 30
0.0
 10
480.340736
 20
566.757716
 30
0.0
 10
480.000000
 20
569.142860
 30
0.0
  0
SPLINE
  5
13f
100
AcDbEntity
  8
Layer_1
 62
7
100
AcDbSpline
 70
8
 71
3
 72
8
 73
4
 74
0
 40
0
 40
0
 40
0
 40
0
 40
1
 40
1
 40
1
 40
1
 10
480.000000
 20
569.142860
 30
0.0
 10
479.569000
 20
572.159844
 30
0.0
 10
480.597688
 20
575.297276
 30
0.0
 10
480.000000
 20
578.285716
 30
0.0
  0
SPLINE
  5
140
100
AcDbEntity
  8
Layer_1
 62
7
100
AcDbSpline
 70
8
 71
3
 72
8
 73
4
 74
0
 40
0
 40
0
 40
0
 40
0
 40
1
 40
1
 40
1
 40
1
 10
480.000000
 20
578.285716
 30
0.0
 10
479.303704
 20
581.767212
 30
0.0
 10
477.286944
 20
580.106836
 30
0.0
 10
475.428568
 20
580.571428
 30
0.0
  0
SPLINE
  5
141
100
AcDbEntity
  8
Layer_1
 62
7
100
AcDbSpline
 70
8
 71
3
 72
8
 73
4
 74
0
 40
0
 40
0
 40
0
 40
0
 40
1
 40
1
 40
1
 40
1
 10
475.428568
 20
580.571428
 30
0.0
 10
473.091152
 20
581.155780
 30
0.0
 10
470.785976
 20
581.908052
 30
0.0
 10
468.571432
 20
582.857140
 30
0.0
  0
SPLINE
  5
142
100
AcDbEntity
  8
Layer_1
 62
7
100
AcDbSpline
 70
8
 71
3
 72
8
 73
4
 74
0
 40
0
 40
0
 40
0
 40
0
 40
1
 40
1
 40
1
 40
1
 10
468.571432
 20
582.857140
 30
0.0
 10
465.439584
 20
584.199364
 30
0.0
 10
462.476192
 20
585.904764
 30
0.0
 10
459.428568
 20
587.428572
 30
0.0
  0
SPLINE
  5
143
100
AcDbEntity
  8
Layer_1
 62
7
100
AcDbSpline
 70
8
 71
3
 72
8
 73
4
 74
0
 40
0
 40
0
 40
0
 40
0
 40
1
 40
1
 40
1
 40
1
 10
459.428568
 20
587.428572
 30
0.0
 10
456.380952
 20
588.952380
 30
0.0
 10
453.187608
 20
590.214220
 30
0.0
 10
450.285712
 20
592.000004
 30
0.0
  0
SPLINE
  5
144
100
AcDbEntity
  8
Layer_1
 62
7
100
AcDbSpline
 70
8
 71
3
 72
8
 73
4
 74
0
 40
0
 40
0
 40
0
 40
0
 40
1
 40
1
 40
1
 40
1
 10
450.285712
 20
592.000004
 30
0.0
 10
438.587816
 20
599.198708
 30
0.0
 10
427.697896
 20
607.658436
 30
0.0
 10
416.000000
 20
614.857140
 30
0.0
  0
SPLINE
  5
145
100
AcDbEntity
  8
Layer_1
 62
7
100
AcDbSpline
 70
8
 71
3
 72
8
 73
4
 74
0
 40
0
 40
0
 40
0
 40
0
 40
1
 40
1
 40
1
 40
1
 10
416.000000
 20
614.857140
 30
0.0
 10
410.768544
 20
618.076500
 30
0.0
 10
405.305912
 20
620.904884
 30
0.0
 10
400.000000
 20
624.000004
 30
0.0
  0
SPLINE
  5
146
100
AcDbEntity
  8
Layer_1
 62
7
100
AcDbSpline
 70
8
 71
3
 72
8
 73
4
 74
0
 40
0
 40
0
 40
0
 40
0
 40
1
 40
1
 40
1
 40
1
 10
400.000000
 20
624.000004
 30
0.0
 10
396.162552
 20
626.238516
 30
0.0
 10
392.471592
 20
628.729780
 30
0.0
 10
388.571432
 20
630.857140
 30
0.0
  0
SPLINE
  5
147
100
AcDbEntity
  8
Layer_1
 62
7
100
AcDbSpline
 70
8
 71
3
 72
8
 73
4
 74
0
 40
0
 40
0
 40
0
 40
0
 40
1
 40
1
 40
1
 40
1
 10
388.571432
 20
630.857140
 30
0.0
 10
384.084496
 20
633.304564
 30
0.0
 10
379.344080
 20
635.266868
 30
0.0
 10
374.857144
 20
637.714284
 30
0.0
  0
SPLINE
  5
148
100
AcDbEntity
  8
Layer_1
 62
7
100
AcDbSpline
 70
8
 71
3
 72
8
 73
4
 74
0
 40
0
 40
0
 40
0
 40
0
 40
1
 40
1
 40
1
 40
1
 10
374.857144
 20
637.714284
 30
0.0
 10
370.956976
 20
639.841652
 30
0.0
 10
367.402184
 20
642.584628
 30
0.0
 10
363.428568
 20
644.571428
 30
0.0
  0
SPLINE
  5
149
100
AcDbEntity
  8
Layer_1
 62
7
100
AcDbSpline
 70
8
 71
3
 72
8
 73
4
 74
0
 40
0
 40
0
 40
0
 40
0
 40
1
 40
1
 40
1
 40
1
 10
363.428568
 20
644.571428
 30
0.0
 10
341.592344
 20
655.489540
 30
0.0
 10
353.713240
 20
648.041188
 30
0.0
 10
331.428568
 20
656.000004
 30
0.0
  0
SPLINE
  5
14a
100
AcDbEntity
  8
Layer_1
 62
7
100
AcDbSpline
 70
8
 71
3
 72
8
 73
4
 74
0
 40
0
 40
0
 40
0
 40
0
 40
1
 40
1
 40
1
 40
1
 10
331.428568
 20
656.000004
 30
0.0
 10
325.964120
 20
657.951588
 30
0.0
 10
320.710968
 20
660.456052
 30
0.0
 10
315.428568
 20
662.857140
 30
0.0
  0
SPLINE
  5
14b
100
AcDbEntity
  8
Layer_1
 62
7
100
AcDbSpline
 70
8
 71
3
 72
8
 73
4
 74
0
 40
0
 40
0
 40
0
 40
0
 40
1
 40
1
 40
1
 40
1
 10
315.428568
 20
662.857140
 30
0.0
 10
312.326640
 20
664.267108
 30
0.0
 10
309.175136
 20
665.622684
 30
0.0
 10
306.285712
 20
667.428572
 30
0.0
  0
SPLINE
  5
14c
100
AcDbEntity
  8
Layer_1
 62
7
100
AcDbSpline
 70
8
 71
3
 72
8
 73
4
 74
0
 40
0
 40
0
 40
0
 40
0
 40
1
 40
1
 40
1
 40
1
 10
306.285712
 20
667.428572
 30
0.0
 10
294.765320
 20
674.628820
 30
0.0
 10
299.385704
 20
672.057156
 30
0.0
 10
292.571432
 20
681.142860
 30
0.0
  0
SPLINE
  5
14d
100
AcDbEntity
  8
Layer_1
 62
7
100
AcDbSpline
 70
8
 71
3
 72
8
 73
4
 74
0
 40
0
 40
0
 40
0
 40
0
 40
1
 40
1
 40
1
 40
1
 10
292.571432
 20
681.142860
 30
0.0
 10
287.903616
 20
687.366612
 30
0.0
 10
289.830400
 20
678.167316
 30
0.0
 10
283.428568
 20
692.571428
 30
0.0
  0
SPLINE
  5
14e
100
AcDbEntity
  8
Layer_1
 62
7
100
AcDbSpline
 70
8
 71
3
 72
8
 73
4
 74
0
 40
0
 40
0
 40
0
 40
0
 40
1
 40
1
 40
1
 40
1
 10
283.428568
 20
692.571428
 30
0.0
 10
281.850736
 20
696.121556
 30
0.0
 10
282.085104
 20
700.231028
 30
0.0
 10
281.142856
 20
704.000004
 30
0.0
  0
SPLINE
  5
14f
100
AcDbEntity
  8
Layer_1
 62
7
100
AcDbSpline
 70
8
 71
3
 72
8
 73
4
 74
0
 40
0
 40
0
 40
0
 40
0
 40
1
 40
1
 40
1
 40
1
 10
281.142856
 20
704.000004
 30
0.0
 10
278.195240
 20
715.790460
 30
0.0
 10
275.764744
 20
722.420060
 30
0.0
 10
272.000000
 20
733.714284
 30
0.0
  0
SPLINE
  5
150
100
AcDbEntity
  8
Layer_1
 62
7
100
AcDbSpline
 70
8
 71
3
 72
8
 73
4
 74
0
 40
0
 40
0
 40
0
 40
0
 40
1
 40
1
 40
1
 40
1
 10
272.000000
 20
733.714284
 30
0.0
 10
266.351072
 20
750.661060
 30
0.0
 10
269.583560
 20
743.118588
 30
0.0
 10
262.857144
 20
756.571428
 30
0.0
  0
SPLINE
  5
151
100
AcDbEntity
  8
Layer_1
 62
7
100
AcDbSpline
 70
8
 71
3
 72
8
 73
4
 74
0
 40
0
 40
0
 40
0
 40
0
 40
1
 40
1
 40
1
 40
1
 10
262.857144
 20
756.571428
 30
0.0
 10
262.095240
 20
758.095236
 30
0.0
 10
262.166624
 20
760.544660
 30
0.0
 10
260.571432
 20
761.142860
 30
0.0
  0
SPLINE
  5
152
100
AcDbEntity
  8
Layer_1
 62
7
100
AcDbSpline
 70
8
 71
3
 72
8
 73
4
 74
0
 40
0
 40
0
 40
0
 40
0
 40
1
 40
1
 40
1
 40
1
 10
260.571432
 20
761.142860
 30
0.0
 10
251.268328
 20
764.631518
 30
0.0
 10
224.666384
 20
763.428572
 30
0.0
 10
214.857144
 20
763.428572
 30
0.0
  0
SPLINE
  5
153
100
AcDbEntity
  8
Layer_1
 62
7
100
AcDbSpline
 70
8
 71
3
 72
8
 73
4
 74
0
 40
0
 40
0
 40
0
 40
0
 40
1
 40
1
 40
1
 40
1
 10
214.857144
 20
763.428572
 30
0.0
 10
204.952384
 20
763.428572
 30
0.0
 10
195.047616
 20
763.428572
 30
0.0
 10
185.142856
 20
763.428572
 30
0.0
  0
SPLINE
  5
154
100
AcDbEntity
  8
Layer_1
 62
7
100
AcDbSpline
 70
8
 71
3
 72
8
 73
4
 74
0
 40
0
 40
0
 40
0
 40
0
 40
1
 40
1
 40
1
 40
1
 10
185.142856
 20
763.428572
 30
0.0
 10
180.571432
 20
763.428572
 30
0.0
 10
176.000000
 20
763.428572
 30
0.0
 10
171.428568
 20
763.428572
 30
0.0
  0
SPLINE
  5
155
100
AcDbEntity
  8
Layer_1
 62
7
100
AcDbSpline
 70
8
 71
3
 72
8
 73
4
 74
0
 40
0
 40
0
 40
0
 40
0
 40
1
 40
1
 40
1
 40
1
 10
171.428568
 20
763.428572
 30
0.0
 10
167.619048
 20
763.428572
 30
0.0
 10
163.735544
 20
764.175681
 30
0.0
 10
160.000000
 20
763.428572
 30
0.0
  0
SPLINE
  5
156
100
AcDbEntity
  8
Layer_1
 62
7
100
AcDbSpline
 70
8
 71
3
 72
8
 73
4
 74
0
 40
0
 40
0
 40
0
 40
0
 40
1
 40
1
 40
1
 40
1
 10
160.000000
 20
763.428572
 30
0.0
 10
155.976696
 20
762.623910
 30
0.0
 10
152.380952
 20
760.380956
 30
0.0
 10
148.571432
 20
758.857140
 30
0.0
  0
SPLINE
  5
157
100
AcDbEntity
  8
Layer_1
 62
7
100
AcDbSpline
 70
8
 71
3
 72
8
 73
4
 74
0
 40
0
 40
0
 40
0
 40
0
 40
1
 40
1
 40
1
 40
1
 10
148.571432
 20
758.857140
 30
0.0
 10
140.492472
 20
755.625556
 30
0.0
 10
136.606352
 20
754.981484
 30
0.0
 10
130.285712
 20
749.714284
 30
0.0
  0
SPLINE
  5
158
100
AcDbEntity
  8
Layer_1
 62
7
100
AcDbSpline
 70
8
 71
3
 72
8
 73
4
 74
0
 40
0
 40
0
 40
0
 40
0
 40
1
 40
1
 40
1
 40
1
 10
130.285712
 20
749.714284
 30
0.0
 10
127.802448
 20
747.644900
 30
0.0
 10
125.714288
 20
745.142860
 30
0.0
 10
123.428568
 20
742.857140
 30
0.0
  0
SPLINE
  5
159
100
AcDbEntity
  8
Layer_1
 62
7
100
AcDbSpline
 70
8
 71
3
 72
8
 73
4
 74
0
 40
0
 40
0
 40
0
 40
0
 40
1
 40
1
 40
1
 40
1
 10
123.428568
 20
742.857140
 30
0.0
 10
119.846360
 20
739.274932
 30
0.0
 10
115.943008
 20
736.400452
 30
0.0
 10
114.285712
 20
731.428572
 30
0.0
  0
SPLINE
  5
15a
100
AcDbEntity
  8
Layer_1
 62
7
100
AcDbSpline
 70
8
 71
3
 72
8
 73
4
 74
0
 40
0
 40
0
 40
0
 40
0
 40
1
 40
1
 40
1
 40
1
 10
114.285712
 20
731.428572
 30
0.0
 10
114.198544
 20
731.167052
 30
0.0
 10
113.956256
 20
718.702668
 30
0.0
 10
114.285712
 20
717.714284
 30
0.0
  0
SPLINE
  5
15b
100
AcDbEntity
  8
Layer_1
 62
7
100
AcDbSpline
 70
8
 71
3
 72
8
 73
4
 74
0
 40
0
 40
0
 40
0
 40
0
 40
1
 40
1
 40
1
 40
1
 10
114.285712
 20
717.714284
 30
0.0
 10
114.824464
 20
716.098044
 30
0.0
 10
116.032680
 20
714.759100
 30
0.0
 10
116.571432
 20
713.142860
 30
0.0
  0
SPLINE
  5
15c
100
AcDbEntity
  8
Layer_1
 62
7
100
AcDbSpline
 70
8
 71
3
 72
8
 73
4
 74
0
 40
0
 40
0
 40
0
 40
0
 40
1
 40
1
 40
1
 40
1
 10
116.571432
 20
713.142860
 30
0.0
 10
117.564832
 20
710.162652
 30
0.0
 10
117.619680
 20
706.887412
 30
0.0
 10
118.857144
 20
704.000004
 30
0.0
  0
SPLINE
  5
15d
100
AcDbEntity
  8
Layer_1
 62
7
100
AcDbSpline
 70
8
 71
3
 72
8
 73
4
 74
0
 40
0
 40
0
 40
0
 40
0
 40
1
 40
1
 40
1
 40
1
 10
118.857144
 20
704.000004
 30
0.0
 10
119.939272
 20
701.475028
 30
0.0
 10
121.904760
 20
699.428572
 30
0.0
 10
123.428568
 20
697.142860
 30
0.0
  0
SPLINE
  5
15e
100
AcDbEntity
  8
Layer_1
 62
7
100
AcDbSpline
 70
8
 71
3
 72
8
 73
4
 74
0
 40
0
 40
0
 40
0
 40
0
 40
1
 40
1
 40
1
 40
1
 10
123.428568
 20
697.142860
 30
0.0
 10
129.793064
 20
687.596124
 30
0.0
 10
126.057520
 20
692.228196
 30
0.0
 10
134.857144
 20
683.428572
 30
0.0
  0
SPLINE
  5
15f
100
AcDbEntity
  8
Layer_1
 62
7
100
AcDbSpline
 70
8
 71
3
 72
8
 73
4
 74
0
 40
0
 40
0
 40
0
 40
0
 40
1
 40
1
 40
1
 40
1
 10
134.857144
 20
683.428572
 30
0.0
 10
137.142856
 20
681.142860
 30
0.0
 10
139.835440
 20
679.201812
 30
0.0
 10
141.714288
 20
676.571428
 30
0.0
  0
SPLINE
  5
160
100
AcDbEntity
  8
Layer_1
 62
7
100
AcDbSpline
 70
8
 71
3
 72
8
 73
4
 74
0
 40
0
 40
0
 40
0
 40
0
 40
1
 40
1
 40
1
 40
1
 10
141.714288
 20
676.571428
 30
0.0
 10
143.694760
 20
673.798764
 30
0.0
 10
144.068248
 20
670.015620
 30
0.0
 10
146.285712
 20
667.428572
 30
0.0
  0
SPLINE
  5
161
100
AcDbEntity
  8
Layer_1
 62
7
100
AcDbSpline
 70
8
 71
3
 72
8
 73
4
 74
0
 40
0
 40
0
 40
0
 40
0
 40
1
 40
1
 40
1
 40
1
 10
146.285712
 20
667.428572
 30
0.0
 10
148.764920
 20
664.536164
 30
0.0
 10
152.949368
 20
663.463836
 30
0.0
 10
155.428568
 20
660.571428
 30
0.0
  0
SPLINE
  5
162
100
AcDbEntity
  8
Layer_1
 62
7
100
AcDbSpline
 70
8
 71
3
 72
8
 73
4
 74
0
 40
0
 40
0
 40
0
 40
0
 40
1
 40
1
 40
1
 40
1
 10
155.428568
 20
660.571428
 30
0.0
 10
157.646040
 20
657.984380
 30
0.0
 10
158.194112
 20
654.317988
 30
0.0
 10
160.000000
 20
651.428572
 30
0.0
  0
SPLINE
  5
163
100
AcDbEntity
  8
Layer_1
 62
7
100
AcDbSpline
 70
8
 71
3
 72
8
 73
4
 74
0
 40
0
 40
0
 40
0
 40
0
 40
1
 40
1
 40
1
 40
1
 10
160.000000
 20
651.428572
 30
0.0
 10
162.019040
 20
648.198100
 30
0.0
 10
164.642904
 20
645.385652
 30
0.0
 10
166.857144
 20
642.285716
 30
0.0
  0
SPLINE
  5
164
100
AcDbEntity
  8
Layer_1
 62
7
100
AcDbSpline
 70
8
 71
3
 72
8
 73
4
 74
0
 40
0
 40
0
 40
0
 40
0
 40
1
 40
1
 40
1
 40
1
 10
166.857144
 20
642.285716
 30
0.0
 10
171.032880
 20
636.439684
 30
0.0
 10
175.073992
 20
630.423452
 30
0.0
 10
178.285712
 20
624.000004
 30
0.0
  0
SPLINE
  5
165
100
AcDbEntity
  8
Layer_1
 62
7
100
AcDbSpline
 70
8
 71
3
 72
8
 73
4
 74
0
 40
0
 40
0
 40
0
 40
0
 40
1
 40
1
 40
1
 40
1
 10
178.285712
 20
624.000004
 30
0.0
 10
179.047616
 20
622.476188
 30
0.0
 10
179.626400
 20
620.846108
 30
0.0
 10
180.571432
 20
619.428572
 30
0.0
  0
SPLINE
  5
166
100
AcDbEntity
  8
Layer_1
 62
7
100
AcDbSpline
 70
8
 71
3
 72
8
 73
4
 74
0
 40
0
 40
0
 40
0
 40
0
 40
1
 40
1
 40
1
 40
1
 10
180.571432
 20
619.428572
 30
0.0
 10
183.395888
 20
615.191876
 30
0.0
 10
182.857144
 20
619.218948
 30
0.0
 10
182.857144
 20
614.857140
 30
0.0
  0
SPLINE
  5
167
100
AcDbEntity
  8
Layer_1
 62
7
100
AcDbSpline
 70
8
 71
3
 72
8
 73
4
 74
0
 40
0
 40
0
 40
0
 40
0
 40
1
 40
1
 40
1
 40
1
 10
182.857144
 20
614.857140
 30
0.0
 10
182.857144
 20
614.095236
 30
0.0
 10
182.857144
 20
613.333332
 30
0.0
 10
182.857144
 20
612.571428
 30
0.0
  0
SPLINE
  5
168
100
AcDbEntity
  8
Layer_1
 62
7
100
AcDbSpline
 70
8
 71
3
 72
8
 73
4
 74
0
 40
0
 40
0
 40
0
 40
0
 40
1
 40
1
 40
1
 40
1
 10
182.857144
 20
612.571428
 30
0.0
 10
182.857144
 20
611.809524
 30
0.0
 10
183.395888
 20
610.824460
 30
0.0
 10
182.857144
 20
610.285716
 30
0.0
  0
SPLINE
  5
169
100
AcDbEntity
  8
Layer_1
 62
7
100
AcDbSpline
 70
8
 71
3
 72
8
 73
4
 74
0
 40
0
 40
0
 40
0
 40
0
 40
1
 40
1
 40
1
 40
1
 10
182.857144
 20
610.285716
 30
0.0
 10
182.318392
 20
609.746964
 30
0.0
 10
181.333336
 20
610.285716
 30
0.0
 10
180.571432
 20
610.285716
 30
0.0
  0
SPLINE
  5
16a
100
AcDbEntity
  8
Layer_1
 62
7
100
AcDbSpline
 70
8
 71
3
 72
8
 73
4
 74
0
 40
0
 40
0
 40
0
 40
0
 40
1
 40
1
 40
1
 40
1
 10
180.571432
 20
610.285716
 30
0.0
 10
179.047616
 20
610.285716
 30
0.0
 10
177.523808
 20
610.285716
 30
0.0
 10
176.000000
 20
610.285716
 30
0.0
  0
SPLINE
  5
16b
100
AcDbEntity
  8
Layer_1
 62
7
100
AcDbSpline
 70
8
 71
3
 72
8
 73
4
 74
0
 40
0
 40
0
 40
0
 40
0
 40
1
 40
1
 40
1
 40
1
 10
176.000000
 20
610.285716
 30
0.0
 10
172.190480
 20
610.285716
 30
0.0
 10
168.380952
 20
610.285716
 30
0.0
 10
164.571432
 20
610.285716
 30
0.0
  0
SPLINE
  5
16c
100
AcDbEntity
  8
Layer_1
 62
7
100
AcDbSpline
 70
8
 71
3
 72
8
 73
4
 74
0
 40
0
 40
0
 40
0
 40
0
 40
1
 40
1
 40
1
 40
1
 10
164.571432
 20
610.285716
 30
0.0
 10
160.761904
 20
610.285716
 30
0.0
 10
156.952384
 20
610.285716
 30
0.0
 10
153.142856
 20
610.285716
 30
0.0
  0
SPLINE
  5
16d
100
AcDbEntity
  8
Layer_1
 62
7
100
AcDbSpline
 70
8
 71
3
 72
8
 73
4
 74
0
 40
0
 40
0
 40
0
 40
0
 40
1
 40
1
 40
1
 40
1
 10
153.142856
 20
610.285716
 30
0.0
 10
143.762584
 20
610.285716
 30
0.0
 10
141.130520
 20
609.361772
 30
0.0
 10
132.571432
 20
612.571428
 30
0.0
  0
SPLINE
  5
16e
100
AcDbEntity
  8
Layer_1
 62
7
100
AcDbSpline
 70
8
 71
3
 72
8
 73
4
 74
0
 40
0
 40
0
 40
0
 40
0
 40
1
 40
1
 40
1
 40
1
 10
132.571432
 20
612.571428
 30
0.0
 10
123.715160
 20
615.892532
 30
0.0
 10
124.437624
 20
616.133804
 30
0.0
 10
118.857144
 20
621.714284
 30
0.0
  0
SPLINE
  5
16f
100
AcDbEntity
  8
Layer_1
 62
7
100
AcDbSpline
 70
8
 71
3
 72
8
 73
4
 74
0
 40
0
 40
0
 40
0
 40
0
 40
1
 40
1
 40
1
 40
1
 10
118.857144
 20
621.714284
 30
0.0
 10
117.333336
 20
623.238092
 30
0.0
 10
115.578712
 20
624.561724
 30
0.0
 10
114.285712
 20
626.285716
 30
0.0
  0
SPLINE
  5
170
100
AcDbEntity
  8
Layer_1
 62
7
100
AcDbSpline
 70
8
 71
3
 72
8
 73
4
 74
0
 40
0
 40
0
 40
0
 40
0
 40
1
 40
1
 40
1
 40
1
 10
114.285712
 20
626.285716
 30
0.0
 10
113.263512
 20
627.648652
 30
0.0
 10
113.204680
 20
629.652468
 30
0.0
 10
112.000000
 20
630.857140
 30
0.0
  0
SPLINE
  5
171
100
AcDbEntity
  8
Layer_1
 62
7
100
AcDbSpline
 70
8
 71
3
 72
8
 73
4
 74
0
 40
0
 40
0
 40
0
 40
0
 40
1
 40
1
 40
1
 40
1
 10
112.000000
 20
630.857140
 30
0.0
 10
110.795320
 20
632.061820
 30
0.0
 10
108.633248
 20
631.938180
 30
0.0
 10
107.428568
 20
633.142860
 30
0.0
  0
SPLINE
  5
172
100
AcDbEntity
  8
Layer_1
 62
7
100
AcDbSpline
 70
8
 71
3
 72
8
 73
4
 74
0
 40
0
 40
0
 40
0
 40
0
 40
1
 40
1
 40
1
 40
1
 10
107.428568
 20
633.142860
 30
0.0
 10
106.223896
 20
634.347532
 30
0.0
 10
105.681608
 20
636.098044
 30
0.0
 10
105.142856
 20
637.714284
 30
0.0
  0
SPLINE
  5
173
100
AcDbEntity
  8
Layer_1
 62
7
100
AcDbSpline
 70
8
 71
3
 72
8
 73
4
 74
0
 40
0
 40
0
 40
0
 40
0
 40
1
 40
1
 40
1
 40
1
 10
105.142856
 20
637.714284
 30
0.0
 10
104.901920
 20
638.437092
 30
0.0
 10
105.681608
 20
639.461252
 30
0.0
 10
105.142856
 20
640.000004
 30
0.0
  0
SPLINE
  5
174
100
AcDbEntity
  8
Layer_1
 62
7
100
AcDbSpline
 70
8
 71
3
 72
8
 73
4
 74
0
 40
0
 40
0
 40
0
 40
0
 40
1
 40
1
 40
1
 40
1
 10
105.142856
 20
640.000004
 30
0.0
 10
103.938176
 20
641.204676
 30
0.0
 10
101.776104
 20
641.081036
 30
0.0
 10
100.571432
 20
642.285716
 30
0.0
  0
SPLINE
  5
175
100
AcDbEntity
  8
Layer_1
 62
7
100
AcDbSpline
 70
8
 71
3
 72
8
 73
4
 74
0
 40
0
 40
0
 40
0
 40
0
 40
1
 40
1
 40
1
 40
1
 10
100.571432
 20
642.285716
 30
0.0
 10
100.032680
 20
642.824460
 30
0.0
 10
100.912160
 20
643.889964
 30
0.0
 10
100.571432
 20
644.571428
 30
0.0
  0
SPLINE
  5
176
100
AcDbEntity
  8
Layer_1
 62
7
100
AcDbSpline
 70
8
 71
3
 72
8
 73
4
 74
0
 40
0
 40
0
 40
0
 40
0
 40
1
 40
1
 40
1
 40
1
 10
100.571432
 20
644.571428
 30
0.0
 10
100.098568
 20
645.517140
 30
0.0
 10
94.683112
 20
650.782684
 30
0.0
 10
93.714288
 20
651.428572
 30
0.0
  0
SPLINE
  5
177
100
AcDbEntity
  8
Layer_1
 62
7
100
AcDbSpline
 70
8
 71
3
 72
8
 73
4
 74
0
 40
0
 40
0
 40
0
 40
0
 40
1
 40
1
 40
1
 40
1
 10
93.714288
 20
651.428572
 30
0.0
 10
92.296744
 20
652.373596
 30
0.0
 10
90.347536
 20
652.509612
 30
0.0
 10
89.142856
 20
653.714284
 30
0.0
  0
SPLINE
  5
178
100
AcDbEntity
  8
Layer_1
 62
7
100
AcDbSpline
 70
8
 71
3
 72
8
 73
4
 74
0
 40
0
 40
0
 40
0
 40
0
 40
1
 40
1
 40
1
 40
1
 10
89.142856
 20
653.714284
 30
0.0
 10
87.938176
 20
654.918964
 30
0.0
 10
87.802168
 20
656.868172
 30
0.0
 10
86.857144
 20
658.285716
 30
0.0
  0
SPLINE
  5
179
100
AcDbEntity
  8
Layer_1
 62
7
100
AcDbSpline
 70
8
 71
3
 72
8
 73
4
 74
0
 40
0
 40
0
 40
0
 40
0
 40
1
 40
1
 40
1
 40
1
 10
86.857144
 20
658.285716
 30
0.0
 10
86.259456
 20
659.182244
 30
0.0
 10
85.333336
 20
659.809524
 30
0.0
 10
84.571432
 20
660.571428
 30
0.0
  0
SPLINE
  5
17a
100
AcDbEntity
  8
Layer_1
 62
7
100
AcDbSpline
 70
8
 71
3
 72
8
 73
4
 74
0
 40
0
 40
0
 40
0
 40
0
 40
1
 40
1
 40
1
 40
1
 10
84.571432
 20
660.571428
 30
0.0
 10
83.809520
 20
661.333332
 30
0.0
 10
83.307920
 20
662.516412
 30
0.0
 10
82.285712
 20
662.857140
 30
0.0
  0
SPLINE
  5
17b
100
AcDbEntity
  8
Layer_1
 62
7
100
AcDbSpline
 70
8
 71
3
 72
8
 73
4
 74
0
 40
0
 40
0
 40
0
 40
0
 40
1
 40
1
 40
1
 40
1
 10
82.285712
 20
662.857140
 30
0.0
 10
82.181888
 20
662.891780
 30
0.0
 10
71.185702
 20
663.021420
 30
0.0
 10
70.857143
 20
662.857140
 30
0.0
  0
SPLINE
  5
17c
100
AcDbEntity
  8
Layer_1
 62
7
100
AcDbSpline
 70
8
 71
3
 72
8
 73
4
 74
0
 40
0
 40
0
 40
0
 40
0
 40
1
 40
1
 40
1
 40
1
 10
70.857143
 20
662.857140
 30
0.0
 10
69.893401
 20
662.375276
 30
0.0
 10
69.467959
 20
661.169116
 30
0.0
 10
68.571429
 20
660.571428
 30
0.0
  0
SPLINE
  5
17d
100
AcDbEntity
  8
Layer_1
 62
7
100
AcDbSpline
 70
8
 71
3
 72
8
 73
4
 74
0
 40
0
 40
0
 40
0
 40
0
 40
1
 40
1
 40
1
 40
1
 10
68.571429
 20
660.571428
 30
0.0
 10
67.153889
 20
659.626404
 30
0.0
 10
65.204678
 20
659.490388
 30
0.0
 10
64.000000
 20
658.285716
 30
0.0
  0
SPLINE
  5
17e
100
AcDbEntity
  8
Layer_1
 62
7
100
AcDbSpline
 70
8
 71
3
 72
8
 73
4
 74
0
 40
0
 40
0
 40
0
 40
0
 40
1
 40
1
 40
1
 40
1
 10
64.000000
 20
658.285716
 30
0.0
 10
62.795322
 20
657.081036
 30
0.0
 10
62.659312
 20
655.131828
 30
0.0
 10
61.714286
 20
653.714284
 30
0.0
  0
SPLINE
  5
17f
100
AcDbEntity
  8
Layer_1
 62
7
100
AcDbSpline
 70
8
 71
3
 72
8
 73
4
 74
0
 40
0
 40
0
 40
0
 40
0
 40
1
 40
1
 40
1
 40
1
 10
61.714286
 20
653.714284
 30
0.0
 10
60.713182
 20
652.212628
 30
0.0
 10
55.269515
 20
648.094260
 30
0.0
 10
54.857143
 20
646.857140
 30
0.0
  0
SPLINE
  5
180
100
AcDbEntity
  8
Layer_1
 62
7
100
AcDbSpline
 70
8
 71
3
 72
8
 73
4
 74
0
 40
0
 40
0
 40
0
 40
0
 40
1
 40
1
 40
1
 40
1
 10
54.857143
 20
646.857140
 30
0.0
 10
54.375272
 20
645.411532
 30
0.0
 10
54.857143
 20
643.809524
 30
0.0
 10
54.857143
 20
642.285716
 30
0.0
  0
SPLINE
  5
181
100
AcDbEntity
  8
Layer_1
 62
7
100
AcDbSpline
 70
8
 71
3
 72
8
 73
4
 74
0
 40
0
 40
0
 40
0
 40
0
 40
1
 40
1
 40
1
 40
1
 10
54.857143
 20
642.285716
 30
0.0
 10
54.857143
 20
641.523812
 30
0.0
 10
55.197877
 20
640.681468
 30
0.0
 10
54.857143
 20
640.000004
 30
0.0
  0
SPLINE
  5
182
100
AcDbEntity
  8
Layer_1
 62
7
100
AcDbSpline
 70
8
 71
3
 72
8
 73
4
 74
0
 40
0
 40
0
 40
0
 40
0
 40
1
 40
1
 40
1
 40
1
 10
54.857143
 20
640.000004
 30
0.0
 10
54.375272
 20
639.036260
 30
0.0
 10
53.053299
 20
638.678028
 30
0.0
 10
52.571429
 20
637.714284
 30
0.0
  0
SPLINE
  5
183
100
AcDbEntity
  8
Layer_1
 62
7
100
AcDbSpline
 70
8
 71
3
 72
8
 73
4
 74
0
 40
0
 40
0
 40
0
 40
0
 40
1
 40
1
 40
1
 40
1
 10
52.571429
 20
637.714284
 30
0.0
 10
52.158133
 20
636.887692
 30
0.0
 10
52.571429
 20
627.875524
 30
0.0
 10
52.571429
 20
626.285716
 30
0.0
  0
SPLINE
  5
184
100
AcDbEntity
  8
Layer_1
 62
7
100
AcDbSpline
 70
8
 71
3
 72
8
 73
4
 74
0
 40
0
 40
0
 40
0
 40
0
 40
1
 40
1
 40
1
 40
1
 10
52.571429
 20
626.285716
 30
0.0
 10
52.571429
 20
625.446316
 30
0.0
 10
52.479449
 20
617.234836
 30
0.0
 10
52.571429
 20
617.142860
 30
0.0
  0
SPLINE
  5
185
100
AcDbEntity
  8
Layer_1
 62
7
100
AcDbSpline
 70
8
 71
3
 72
8
 73
4
 74
0
 40
0
 40
0
 40
0
 40
0
 40
1
 40
1
 40
1
 40
1
 10
52.571429
 20
617.142860
 30
0.0
 10
53.110177
 20
616.604108
 30
0.0
 10
54.318395
 20
617.681604
 30
0.0
 10
54.857143
 20
617.142860
 30
0.0
  0
SPLINE
  5
186
100
AcDbEntity
  8
Layer_1
 62
7
100
AcDbSpline
 70
8
 71
3
 72
8
 73
4
 74
0
 40
0
 40
0
 40
0
 40
0
 40
1
 40
1
 40
1
 40
1
 10
54.857143
 20
617.142860
 30
0.0
 10
55.395891
 20
616.604108
 30
0.0
 10
54.318395
 20
615.395892
 30
0.0
 10
54.857143
 20
614.857140
 30
0.0
  0
SPLINE
  5
187
100
AcDbEntity
  8
Layer_1
 62
7
100
AcDbSpline
 70
8
 71
3
 72
8
 73
4
 74
0
 40
0
 40
0
 40
0
 40
0
 40
1
 40
1
 40
1
 40
1
 10
54.857143
 20
614.857140
 30
0.0
 10
55.395891
 20
614.318396
 30
0.0
 10
56.380952
 20
614.857140
 30
0.0
 10
57.142857
 20
614.857140
 30
0.0
  0
SPLINE
  5
188
100
AcDbEntity
  8
Layer_1
 62
7
100
AcDbSpline
 70
8
 71
3
 72
8
 73
4
 74
0
 40
0
 40
0
 40
0
 40
0
 40
1
 40
1
 40
1
 40
1
 10
57.142857
 20
614.857140
 30
0.0
 10
57.904762
 20
614.857140
 30
0.0
 10
58.666666
 20
614.857140
 30
0.0
 10
59.428571
 20
614.857140
 30
0.0
  0
SPLINE
  5
189
100
AcDbEntity
  8
Layer_1
 62
7
100
AcDbSpline
 70
8
 71
3
 72
8
 73
4
 74
0
 40
0
 40
0
 40
0
 40
0
 40
1
 40
1
 40
1
 40
1
 10
59.428571
 20
614.857140
 30
0.0
 10
62.476190
 20
614.857140
 30
0.0
 10
65.523810
 20
614.857140
 30
0.0
 10
68.571429
 20
614.857140
 30
0.0
  0
LWPOLYLINE
  5
18a
100
AcDbEntity
  8
Layer_1
 62
7
100
AcDbPolyline
 90
2
 70
1
 10
68.571429
 20
614.857140
 30
0.0
 10
68.571429
 20
614.857140
 30
0.0
  0
ENDSEC
  0
SECTION
  2
OBJECTS
  0
DICTIONARY
  5
C
330
0
100
AcDbDictionary
  3
ACAD_GROUP
350
D
  3
ACAD_MLINESTYLE
350
17
  0
DICTIONARY
  5
D
330
C
100
AcDbDictionary
  0
DICTIONARY
  5
1A
330
C
100
AcDbDictionary
  0
DICTIONARY
  5
17
330
C
100
AcDbDictionary
  3
STANDARD
350
18
  0
DICTIONARY
  5
19
330
C
100
AcDbDictionary
  0
ENDSEC
  0
EOF
